<?xml version="1.0" standalone="no"?>
<!DOCTYPE svg PUBLIC "-//W3C//DTD SVG 20010904//EN"
 "http://www.w3.org/TR/2001/REC-SVG-20010904/DTD/svg10.dtd">
<svg version="1.0" xmlns="http://www.w3.org/2000/svg"
 width="512.000000pt" height="512.000000pt" viewBox="0 0 512.000000 512.000000"
 preserveAspectRatio="xMidYMid meet">
<metadata>
Created by potrace 1.16, written by Peter Selinger 2001-2019
</metadata>
<g transform="translate(0.000000,512.000000) scale(0.100000,-0.100000)"
fill="#000000" stroke="none">
<path d="M912 4783 c-18 -9 -45 -32 -60 -51 l-27 -35 -5 -403 -5 -403 -375
-256 c-206 -141 -390 -272 -407 -291 l-33 -34 0 -1430 c0 -1581 -5 -1473 66
-1526 l37 -29 2475 -3 c2748 -2 2511 -8 2532 65 8 27 10 473 8 1503 l-3 1464
-377 266 -376 265 -4 406 -3 406 -27 35 c-56 74 90 68 -1740 68 -1501 0 -1646
-2 -1676 -17z m3196 -1160 l-3 -936 -754 -569 c-415 -313 -760 -567 -766 -566
-6 2 -352 259 -768 573 l-756 570 -1 933 0 932 1525 0 1525 0 -2 -937z m-3288
-389 l0 -356 -38 29 c-148 109 -452 347 -449 349 12 12 473 333 480 333 4 1 7
-159 7 -355z m3810 171 c118 -81 216 -148 217 -149 3 -2 -452 -346 -474 -360
-10 -6 -13 66 -13 344 l0 351 28 -19 c15 -11 124 -86 242 -167z m-3557 -1034
c439 -332 794 -607 790 -611 -15 -13 -1614 -1090 -1619 -1090 -2 0 -4 525 -4
1166 0 1121 1 1165 18 1152 10 -7 377 -285 815 -617z m3805 -1086 l-3 -576
-790 530 c-434 292 -791 534 -792 538 -1 4 354 281 790 615 l792 606 3 -568
c1 -313 1 -828 0 -1145z m-1017 -192 l780 -528 -1026 -3 c-564 -1 -1487 -1
-2051 0 l-1026 3 757 510 c416 281 765 514 775 519 14 6 58 -23 206 -136 255
-194 250 -191 298 -192 38 -1 56 11 271 177 127 97 231 177 233 177 2 0 354
-237 783 -527z"/>
<path d="M1613 4029 c-83 -24 -113 -137 -53 -198 17 -17 45 -33 63 -36 18 -3
159 -5 314 -3 268 3 283 4 310 24 65 49 66 149 0 196 -31 23 -37 23 -317 25
-157 1 -299 -2 -317 -8z"/>
<path d="M1620 3501 c-59 -15 -90 -56 -90 -122 0 -61 39 -105 103 -114 23 -3
470 -5 992 -3 1032 3 974 0 1009 59 40 68 4 158 -72 179 -41 11 -1898 12
-1942 1z"/>
<path d="M1620 2971 c-59 -15 -90 -56 -90 -122 0 -61 39 -105 103 -114 23 -3
470 -5 992 -3 1032 3 974 0 1009 59 40 68 4 158 -72 179 -41 11 -1898 12
-1942 1z"/>
</g>
</svg>
