<?xml version="1.0" standalone="no"?>
<!DOCTYPE svg PUBLIC "-//W3C//DTD SVG 20010904//EN"
 "http://www.w3.org/TR/2001/REC-SVG-20010904/DTD/svg10.dtd">
<svg version="1.0" xmlns="http://www.w3.org/2000/svg"
 width="512.000000pt" height="512.000000pt" viewBox="0 0 512.000000 512.000000"
 preserveAspectRatio="xMidYMid meet">
<metadata>
Created by potrace 1.16, written by Peter Selinger 2001-2019
</metadata>
<g transform="translate(0.000000,512.000000) scale(0.100000,-0.100000)"
fill="#000000" stroke="none">
<path d="M876 5101 c-15 -10 -37 -32 -47 -47 -18 -27 -19 -53 -19 -386 l0
-358 -112 0 c-124 0 -152 -10 -189 -66 -26 -39 -26 -129 0 -168 37 -56 65 -66
189 -66 l112 0 0 -250 0 -250 -112 0 c-124 0 -152 -10 -189 -66 -26 -39 -26
-129 0 -168 37 -56 65 -66 189 -66 l112 0 0 -250 0 -250 -112 0 c-124 0 -152
-10 -189 -66 -26 -39 -26 -129 0 -168 37 -56 65 -66 189 -66 l112 0 0 -250 0
-250 -112 0 c-124 0 -152 -10 -189 -66 -26 -39 -26 -129 0 -168 37 -56 65 -66
189 -66 l112 0 0 -250 0 -250 -112 0 c-124 0 -152 -10 -189 -66 -26 -39 -26
-129 0 -168 37 -56 65 -66 189 -66 l112 0 0 -357 c0 -334 1 -360 19 -387 10
-15 32 -37 47 -47 28 -18 83 -19 1844 -19 1761 0 1816 1 1844 19 15 10 37 32
47 47 18 28 19 96 19 2494 0 2398 -1 2466 -19 2494 -10 15 -32 37 -47 47 -28
18 -83 19 -1844 19 -1761 0 -1816 -1 -1844 -19z m3454 -2541 l0 -2260 -1610 0
-1610 0 0 255 0 255 113 0 c123 0 151 10 188 66 26 39 26 129 0 168 -37 56
-65 66 -188 66 l-113 0 0 250 0 250 113 0 c123 0 151 10 188 66 26 39 26 129
0 168 -37 56 -65 66 -188 66 l-113 0 0 250 0 250 113 0 c123 0 151 10 188 66
26 39 26 129 0 168 -37 56 -65 66 -188 66 l-113 0 0 250 0 250 113 0 c123 0
151 10 188 66 26 39 26 129 0 168 -37 56 -65 66 -188 66 l-113 0 0 250 0 250
113 0 c123 0 151 10 188 66 26 39 26 129 0 168 -37 56 -65 66 -188 66 l-113 0
0 255 0 255 1610 0 1610 0 0 -2260z"/>
<path d="M2534 3730 c-190 -50 -355 -183 -449 -362 -99 -187 -102 -457 -7
-645 32 -63 104 -163 145 -202 l26 -23 -59 -44 c-248 -187 -420 -552 -420
-893 0 -106 12 -136 66 -172 38 -25 125 -26 166 -1 52 30 67 68 78 193 26 311
161 555 374 674 82 46 163 66 266 66 103 0 184 -20 266 -66 213 -119 347 -360
374 -674 11 -125 27 -163 78 -193 41 -25 128 -24 166 1 54 36 66 66 66 172 0
341 -171 706 -420 893 l-59 44 26 23 c82 78 170 232 198 351 22 92 19 258 -5
352 -62 244 -262 444 -508 507 -100 25 -269 25 -368 -1z m356 -327 c83 -41
152 -110 193 -193 30 -60 32 -72 32 -170 0 -98 -2 -110 -32 -170 -41 -83 -110
-152 -193 -193 -60 -30 -72 -32 -170 -32 -98 0 -110 2 -170 32 -83 41 -152
110 -193 193 -28 55 -32 77 -35 156 -3 79 0 100 21 153 45 112 123 191 234
237 50 21 71 24 153 22 84 -3 103 -7 160 -35z"/>
</g>
</svg>
