<?xml version="1.0" standalone="no"?>
<!DOCTYPE svg PUBLIC "-//W3C//DTD SVG 20010904//EN"
 "http://www.w3.org/TR/2001/REC-SVG-20010904/DTD/svg10.dtd">
<svg version="1.0" xmlns="http://www.w3.org/2000/svg"
 width="250.000000pt" height="250.000000pt" viewBox="0 0 250.000000 250.000000"
 preserveAspectRatio="xMidYMid meet">
<metadata>
Created by potrace 1.16, written by Peter Selinger 2001-2019
</metadata>
<g transform="translate(0.000000,250.000000) scale(0.100000,-0.100000)"
fill="#000000" stroke="none">
<path d="M1020 2309 c-127 -32 -215 -82 -302 -170 -116 -116 -168 -237 -168
-391 0 -252 172 -475 433 -561 86 -28 295 -30 382 -3 157 47 319 176 384 304
59 118 76 261 46 391 -74 313 -441 517 -775 430z m283 -124 c230 -60 378 -248
365 -463 -15 -235 -201 -411 -453 -429 -94 -7 -219 20 -290 62 -204 119 -285
346 -200 560 49 122 180 230 327 269 70 19 180 20 251 1z"/>
<path d="M795 1009 c-252 -49 -492 -190 -631 -370 l-44 -57 0 -236 0 -236
1060 0 1060 0 0 238 0 237 -43 55 c-124 158 -329 288 -552 351 -75 22 -100 23
-440 25 -202 1 -382 -2 -410 -7z m773 -139 c195 -39 379 -143 486 -273 l36
-44 0 -157 0 -156 -910 0 -910 0 0 161 0 161 79 76 c120 118 260 193 431 231
73 17 128 19 388 20 265 1 316 -2 400 -19z"/>
</g>
</svg>
